<svg xmlns="http://www.w3.org/2000/svg" viewBox="0 0 21.25 19.67"><defs><style>.cls-1{fill:#4c4c4c;}</style></defs><title>icon-send</title><g id="Layer_2" data-name="Layer 2"><g id="Layer_1-2" data-name="Layer 1"><path class="cls-1" d="M21.14.08a.32.32,0,0,0-.34,0L.18,9.61A.31.31,0,0,0,0,9.89a.32.32,0,0,0,.18.29L6,13a.29.29,0,0,0,.33,0L12,8.77,7.56,13.35a.38.38,0,0,0-.09.25l.45,5.77a.31.31,0,0,0,.21.28l.1,0a.32.32,0,0,0,.24-.11L11.57,16,15.4,17.8a.3.3,0,0,0,.26,0,.31.31,0,0,0,.18-.19L21.24.41a.32.32,0,0,0-.1-.33Z"/></g></g></svg>