<svg xmlns="http://www.w3.org/2000/svg" viewBox="0 0 27.96 27.96"><defs><style>.cls-1{fill:#92929d;}</style></defs><title>icon-phone</title><g id="Layer_2" data-name="Layer 2"><g id="Layer_1-2" data-name="Layer 1"><path class="cls-1" d="M21.26,18.5a2,2,0,0,0-3,0q-1.05,1-2.07,2.07a.41.41,0,0,1-.57.1c-.45-.24-.93-.44-1.36-.71a21.46,21.46,0,0,1-5.17-4.71,12.36,12.36,0,0,1-1.86-3,.43.43,0,0,1,.1-.55c.7-.67,1.37-1.36,2.05-2a2,2,0,0,0,0-3C8.88,6.11,8.33,5.57,7.79,5S6.68,3.9,6.12,3.35a2,2,0,0,0-3,0C2.46,4,1.79,4.75,1.08,5.42A3.39,3.39,0,0,0,0,7.7a9.53,9.53,0,0,0,.75,4.15A25.27,25.27,0,0,0,5.24,19.3a27.52,27.52,0,0,0,9.17,7.17A13.25,13.25,0,0,0,19.49,28a3.71,3.71,0,0,0,3.19-1.21c.6-.67,1.27-1.27,1.89-1.91a2,2,0,0,0,0-3L21.26,18.5Z"/><path class="cls-1" d="M20.15,13.86l2.14-.37a9.61,9.61,0,0,0-8.15-7.9l-.3,2.15a7.49,7.49,0,0,1,6.31,6.12Z"/><path class="cls-1" d="M23.5,4.53A15.8,15.8,0,0,0,14.43,0l-.31,2.16A13.8,13.8,0,0,1,25.81,13.49L28,13.12A15.89,15.89,0,0,0,23.5,4.53Z"/></g></g></svg>