<svg xmlns="http://www.w3.org/2000/svg" viewBox="0 0 19 28.86"><defs><style>.cls-1{fill:#4c4c4c;fill-rule:evenodd;}</style></defs><title>icon-giay-phep</title><g id="Layer_2" data-name="Layer 2"><g id="Layer_1-2" data-name="Layer 1"><path class="cls-1" d="M19,5.65v0s0,0,0-.08h0a.64.64,0,0,1,0-.07h0a.19.19,0,0,0,0-.07h0l0-.06v0l0-.05L13.73.17a.12.12,0,0,0-.05-.05h0l-.06,0h0l-.07,0h0l-.07,0H.56A.56.56,0,0,0,0,.56V24.69a.57.57,0,0,0,.56.57H9.05v3a.56.56,0,0,0,.29.49.58.58,0,0,0,.57,0l2.15-1.35,2.15,1.35a.61.61,0,0,0,.3.08.52.52,0,0,0,.27-.07.56.56,0,0,0,.29-.49v-3h3.37a.57.57,0,0,0,.56-.57v-19ZM13.9,1.92,17.08,5.1H13.9ZM8.77,17.41a1.6,1.6,0,0,1-.1-.35A1,1,0,0,1,9,16.85a2.13,2.13,0,0,0,.59-.5,2,2,0,0,0,.3-.72,1.29,1.29,0,0,1,.1-.33h.61a1.58,1.58,0,0,0,.52-.08,1.93,1.93,0,0,0,.65-.4,1.43,1.43,0,0,1,.33-.22,1.43,1.43,0,0,1,.33.22,2,2,0,0,0,.65.4,1.62,1.62,0,0,0,.52.08h.61a1.82,1.82,0,0,1,.11.33,2,2,0,0,0,.29.72,2.28,2.28,0,0,0,.59.5,1.21,1.21,0,0,1,.3.21,2.68,2.68,0,0,1-.11.35,2.35,2.35,0,0,0-.18.78,2.35,2.35,0,0,0,.18.77,2.36,2.36,0,0,1,.11.36,2.17,2.17,0,0,1-.3.21,2.06,2.06,0,0,0-.59.49,2,2,0,0,0-.29.72,1.82,1.82,0,0,1-.11.33h-.61a1.62,1.62,0,0,0-.52.08,2,2,0,0,0-.65.4,1.25,1.25,0,0,1-.33.22,1.25,1.25,0,0,1-.33-.22,1.93,1.93,0,0,0-.65-.4,1.58,1.58,0,0,0-.52-.08H10a1.29,1.29,0,0,1-.1-.33,2,2,0,0,0-.3-.72A1.93,1.93,0,0,0,9,19.53a1.56,1.56,0,0,1-.29-.21,1.52,1.52,0,0,1,.1-.36,1.76,1.76,0,0,0,0-1.55Zm5.17,9.87-1.58-1a.54.54,0,0,0-.6,0l-1.58,1V22.21h.38a.35.35,0,0,1,.16,0,1.1,1.1,0,0,1,.3.21,1.66,1.66,0,0,0,1,.47,1.66,1.66,0,0,0,1-.47,1.1,1.1,0,0,1,.3-.21.38.38,0,0,1,.16,0h.38v5.07Zm1.13-3.15V21.75a2.09,2.09,0,0,0,.3-.72,1.35,1.35,0,0,1,.11-.34,1.28,1.28,0,0,1,.29-.21,1.63,1.63,0,0,0,.76-.81,1.69,1.69,0,0,0-.12-1.1,1.64,1.64,0,0,1-.11-.38,1.57,1.57,0,0,1,.11-.39,1.68,1.68,0,0,0,.12-1.1,1.67,1.67,0,0,0-.76-.81,1,1,0,0,1-.29-.21,1.26,1.26,0,0,1-.11-.33,1.53,1.53,0,0,0-.53-1,1.35,1.35,0,0,0-.81-.23h-.47a.38.38,0,0,1-.16,0,1.1,1.1,0,0,1-.3-.21,1.66,1.66,0,0,0-1-.47A1.66,1.66,0,0,0,11,14a1.1,1.1,0,0,1-.3.21.35.35,0,0,1-.16,0h-.47a1.36,1.36,0,0,0-.81.23,1.58,1.58,0,0,0-.53,1,1.26,1.26,0,0,1-.11.33,1,1,0,0,1-.29.21,1.61,1.61,0,0,0-.75.81,1.62,1.62,0,0,0,.11,1.1,1.23,1.23,0,0,1,.11.39,1.26,1.26,0,0,1-.11.38,1.63,1.63,0,0,0-.11,1.1,1.57,1.57,0,0,0,.75.81,1.28,1.28,0,0,1,.29.21,1.35,1.35,0,0,1,.11.34,2.09,2.09,0,0,0,.3.72v2.38H1.13v-23H12.77V5.66a.56.56,0,0,0,.57.57h4.53v17.9Z"/><path class="cls-1" d="M3.32,6.23h7.26a.57.57,0,0,0,0-1.13H3.32a.57.57,0,1,0,0,1.13Z"/><path class="cls-1" d="M15.74,8H3.32a.56.56,0,1,0,0,1.12H15.74a.56.56,0,1,0,0-1.12Z"/><path class="cls-1" d="M13.49,10.79H3.32a.57.57,0,1,0,0,1.13H13.49a.57.57,0,0,0,0-1.13Z"/><path class="cls-1" d="M15.74,10.79a.57.57,0,0,0-.56.57.57.57,0,0,0,1.13,0,.57.57,0,0,0-.57-.57Z"/></g></g></svg>