<svg xmlns="http://www.w3.org/2000/svg" viewBox="0 0 13 12.43"><defs><style>.cls-1{fill:#92929d;}</style></defs><title>subject-taught-icon</title><g id="Layer_2" data-name="Layer 2"><g id="Layer_1-2" data-name="Layer 1"><path class="cls-1" d="M6.22,12.43h0A6.22,6.22,0,1,1,6.22,0h0A6.12,6.12,0,0,1,8.75.54a.53.53,0,0,1-.43,1,5.08,5.08,0,0,0-2.1-.45h0a5.17,5.17,0,0,0,0,10.33h0a5.16,5.16,0,0,0,5.16-5.16V5.69a.53.53,0,0,1,.53-.53.52.52,0,0,1,.52.53v.53a6.21,6.21,0,0,1-6.21,6.21Z"/><path class="cls-1" d="M6.22,7.88a.55.55,0,0,1-.38-.15L4.14,6a.52.52,0,0,1,.74-.74L6.22,6.61,12.1.73a.53.53,0,0,1,.75,0,.53.53,0,0,1,0,.74L6.59,7.73A.55.55,0,0,1,6.22,7.88Z"/></g></g></svg>